<svg width="1398" height="1064" xmlns="http://www.w3.org/2000/svg" data-name="Capa 1">

 <g>
  <title>Layer 1</title>
  <g id="svg_34">
   <rect stroke="null" y="0" id="svg_1" fill="#f7d118" height="1063.76567" width="1398" x="-0.01" class="cls-1"/>
   <polygon stroke="null" id="svg_2" fill="#1d1d1b" points="243.55567832433474,485.55921967600443 230.55990721358933,485.55921967600443 230.55990721358933,415.5498281823093 230.35027555740191,415.5498281823093 202.996319511779,450.34494025824097 200.58581138707189,450.34494025824097 172.91742385225837,415.5498281823093 172.81260802416466,415.5498281823093 172.81260802416466,485.55921967600443 159.71205307550656,485.55921967600443 159.71205307550656,395.74179600981734 171.97417736995806,395.74179600981734 201.8434733634723,432.632936735994 231.50312170570862,395.74179600981734 243.55567832433474,395.74179600981734 243.55567832433474,485.55921967600443 " class="cls-2"/>
   <rect stroke="null" id="svg_3" fill="#1d1d1b" height="89.81746" width="12.89095" y="395.74179" x="265.25019" class="cls-2"/>
   <polygon stroke="null" id="svg_4" fill="#1d1d1b" points="383.88889280091564,485.55921967600443 372.88443048286456,485.55921967600443 312.9362388298297,416.3882908266969 312.9362388298297,485.55921967600443 300.6741145353782,485.55921967600443 300.6741145353782,395.74179600981734 311.04977785541007,395.74179600981734 371.73156833946734,465.3319881714997 371.73156833946734,395.74179600981734 383.88889280091564,395.74179600981734 383.88889280091564,485.55921967600443 " class="cls-2"/>
   <rect stroke="null" id="svg_5" fill="#1d1d1b" height="89.81746" width="12.89095" y="395.74179" x="405.58341" class="cls-2"/>
   <path stroke="null" id="svg_6" fill="#1d1d1b" d="m483.13874,415.44504a29.86928,29.86928 0 0 0 -20.9609,-9.3276a16.76872,16.76872 0 0 0 -10.48045,2.93453a8.59397,8.59397 0 0 0 -4.08738,7.44112a11.21408,11.21408 0 0 0 2.93453,7.54592a33.53744,33.53744 0 0 0 9.64201,7.44112l9.85162,5.86905a28.08761,28.08761 0 0 1 16.45431,24.83867a26.72515,26.72515 0 0 1 -1.88648,9.95643a20.9609,20.9609 0 0 1 -5.34503,7.75553a24.10503,24.10503 0 0 1 -8.27956,5.03062a32.38459,32.38459 0 0 1 -10.48045,1.78168a39.5113,39.5113 0 0 1 -24.20984,-8.17475l0,-16.3495a37.93923,37.93923 0 0 0 3.77296,4.40179a19.59844,19.59844 0 0 0 3.56335,3.03933a33.85185,33.85185 0 0 0 8.17475,4.29698a25.78191,25.78191 0 0 0 8.48916,1.46726a15.19665,15.19665 0 0 0 10.48045,-3.35374a10.48045,10.48045 0 0 0 3.98257,-8.48916a13.51978,13.51978 0 0 0 -3.03933,-8.17475a29.97409,29.97409 0 0 0 -8.80358,-7.44112l-9.64201,-5.86905a41.9218,41.9218 0 0 1 -12.99576,-10.48045a21.48492,21.48492 0 0 1 -4.19218,-12.36693a25.04828,25.04828 0 0 1 1.88648,-10.48045a22.21855,22.21855 0 0 1 5.44983,-7.65073a22.84738,22.84738 0 0 1 8.06995,-5.24022a32.38459,32.38459 0 0 1 10.48045,-1.78168a35.73833,35.73833 0 0 1 10.48045,1.57207a35.31912,35.31912 0 0 1 10.48045,4.82101l0.20961,14.98704z" class="cls-2"/>
   <polygon stroke="null" id="svg_7" fill="#1d1d1b" points="570.5456808364953,407.060657826878 539.2091871809363,407.060657826878 539.2091871809363,485.55921967600443 526.3182318982846,485.55921967600443 526.3182318982846,407.060657826878 495.5056414371985,407.060657826878 495.5056414371985,395.74179600981734 570.5456808364953,395.74179600981734 570.5456808364953,407.060657826878 " class="cls-2"/>
   <polygon stroke="null" id="svg_8" fill="#1d1d1b" points="635.9437197271446,407.1654896500622 597.7949170245676,407.1654896500622 597.7949170245676,434.729029366601 634.581257917741,434.729029366601 634.581257917741,446.04795516402373 597.7949170245676,446.04795516402373 597.7949170245676,473.92592636975314 637.0965818705419,473.92592636975314 637.0965818705419,485.55921967600443 584.9039617419159,485.55921967600443 584.9039617419159,395.84659584282053 635.9437197271446,395.84659584282053 635.9437197271446,407.1654896500622 " class="cls-2"/>
   <path stroke="null" id="svg_9" fill="#1d1d1b" d="m675.97902,395.74179a32.17498,32.17498 0 0 1 21.58973,6.70749a23.05699,23.05699 0 0 1 7.86034,18.34079a23.58101,23.58101 0 0 1 -3.77296,13.51978a22.74258,22.74258 0 0 1 -11.21408,8.59397l2.3057,1.67687l1.88648,1.36246l1.67687,1.67687l1.88648,2.20089l2.72492,3.24894q1.25765,1.57207 2.51531,3.45855l3.03933,4.6114l3.98257,6.49788a119.58193,119.58193 0 0 0 7.54592,11.42369l3.87777,5.44983l0.83844,1.04804l-15.30146,0l-0.94324,-1.25765l-3.24894,-4.7162l-1.04804,-1.78168l-1.88648,-2.93453l-4.82101,-7.65073l-3.66816,-6.07866q-2.82972,-3.98257 -5.97386,-7.54592a29.86928,29.86928 0 0 0 -5.34503,-4.92581a11.6333,11.6333 0 0 0 -4.40179,-2.20089a32.5942,32.5942 0 0 0 -6.39307,0l-3.45855,0l0,39.09208l-12.78615,0l0,-89.81746l22.53297,0zm-9.74682,39.30169l14.25341,0a12.68134,12.68134 0 0 0 8.59397,-4.50659a15.09185,15.09185 0 0 0 3.66816,-9.3276a13.10056,13.10056 0 0 0 -1.99129,-7.12671a10.48045,10.48045 0 0 0 -4.92581,-4.82101a23.3714,23.3714 0 0 0 -5.86905,-1.67687a69.27577,69.27577 0 0 0 -9.3276,0l-4.40179,0l0,27.45878z" class="cls-2"/>
   <rect stroke="null" id="svg_10" fill="#1d1d1b" height="89.81746" width="12.89095" y="395.74179" x="734.98396" class="cls-2"/>
   <path stroke="null" id="svg_11" fill="#1d1d1b" d="m833.39538,398.2571a46.21878,46.21878 0 0 1 15.40626,9.53721a47.05722,47.05722 0 0 1 10.48045,14.67263a48.62929,48.62929 0 0 1 0,36.78638a45.38035,45.38035 0 0 1 -10.48045,14.56783a48.10527,48.10527 0 0 1 -15.61587,9.64201a52.40225,52.40225 0 0 1 -19.59844,3.45855a50.20136,50.20136 0 0 1 -18.86481,-3.45855a44.54191,44.54191 0 0 1 -28.50682,-41.9218a47.26683,47.26683 0 0 1 3.56335,-18.6552a42.86504,42.86504 0 0 1 10.48045,-14.67263a44.3323,44.3323 0 0 1 15.19665,-9.95643a49.88694,49.88694 0 0 1 19.17922,-3.56335a52.40225,52.40225 0 0 1 18.76001,3.56335zm-32.90861,10.48045a32.699,32.699 0 0 0 -18.44559,17.60716a33.22303,33.22303 0 0 0 -2.72492,13.83419a32.699,32.699 0 0 0 2.72492,13.41498a31.44135,31.44135 0 0 0 7.23151,10.48045a31.44135,31.44135 0 0 0 11.10928,7.12671a35.10951,35.10951 0 0 0 13.939,2.62011a37.83442,37.83442 0 0 0 13.939,-2.20089a33.11822,33.11822 0 0 0 11.21408,-7.75553a34.16627,34.16627 0 0 0 10.48045,-24.41945a33.11822,33.11822 0 0 0 -10.48045,-23.89543a36.47197,36.47197 0 0 0 -10.48045,-7.23151a34.37588,34.37588 0 0 0 -13.72939,-2.62011a38.46325,38.46325 0 0 0 -14.77743,3.03933z" class="cls-2"/>
   <path stroke="null" id="svg_12" fill="#1d1d1b" d="m190.41978,535.86541l9.74682,0a57.22326,57.22326 0 0 1 7.23151,1.04804a51.1446,51.1446 0 0 1 12.26213,4.08738a42.96984,42.96984 0 0 1 21.79934,27.24917a43.80828,43.80828 0 0 1 1.67687,12.26213a43.28426,43.28426 0 0 1 -2.20089,13.72939a40.34973,40.34973 0 0 1 -6.18347,12.15732a43.80828,43.80828 0 0 1 -9.53721,9.64201a52.40225,52.40225 0 0 1 -12.47174,6.49788l-4.7162,1.46726l-4.6114,0.83844l-43.28426,0l0,-88.97902l30.2885,0zm-17.50235,78.07935l26.20112,0l3.45855,0a26.62034,26.62034 0 0 0 3.87777,-1.04804a28.50682,28.50682 0 0 0 9.4324,-5.03062a31.44135,31.44135 0 0 0 7.23151,-7.23151a34.8999,34.8999 0 0 0 4.6114,-9.53721a35.52873,35.52873 0 0 0 1.67687,-11.00447a33.22303,33.22303 0 0 0 -4.82101,-17.81676a30.70772,30.70772 0 0 0 -13.939,-11.52849a30.3933,30.3933 0 0 0 -4.29698,-1.67687a22.32336,22.32336 0 0 0 -4.40179,-1.04804l-29.03085,0l0,65.92203z" class="cls-2"/>
   <polygon stroke="null" id="svg_13" fill="#1d1d1b" points="311.9930083426199,547.1843046276335 273.948973482865,547.1843046276335 273.948973482865,574.6430765013502 310.73534636621946,574.6430765013502 310.73534636621946,585.9619703085918 273.948973482865,585.9619703085918 273.948973482865,613.9447413473245 313.2506383288393,613.9447413473245 313.2506383288393,625.5780346535757 261.05800220512276,625.5780346535757 261.05800220512276,535.8654108203918 311.9930083426199,535.8654108203918 311.9930083426199,547.1843046276335 " class="cls-2"/>
   <path stroke="null" id="svg_14" fill="#1d1d1b" d="m444.57069,555.46385a79.75622,79.75622 0 0 0 -15.72067,-6.70749a53.34549,53.34549 0 0 0 -15.19665,-2.20089a40.76895,40.76895 0 0 0 -14.25341,2.51531a36.36716,36.36716 0 0 0 -11.31889,7.12671a32.699,32.699 0 0 0 -7.54592,10.48045a37.3104,37.3104 0 0 0 0,27.35397a30.60291,30.60291 0 0 0 7.33631,10.48045a34.27107,34.27107 0 0 0 11.31889,7.0219a39.40649,39.40649 0 0 0 14.35822,2.4105a57.53767,57.53767 0 0 0 31.44135,-10.48045l0,14.88224a69.27577,69.27577 0 0 1 -15.40626,6.07866a79.2322,79.2322 0 0 1 -17.18794,1.88648a54.91756,54.91756 0 0 1 -17.50235,-2.51531a43.70348,43.70348 0 0 1 -14.25341,-8.06995a46.00918,46.00918 0 0 1 -12.78615,-53.5551a47.05722,47.05722 0 0 1 10.48045,-14.67263a49.36292,49.36292 0 0 1 34.58548,-13.41498a71.16226,71.16226 0 0 1 14.88224,1.67687a120.00115,120.00115 0 0 1 16.66392,5.65944l0.1048,14.0438z" class="cls-2"/>
   <rect stroke="null" id="svg_15" fill="#1d1d1b" height="89.81746" width="12.89095" y="535.6558" x="463.64511" class="cls-2"/>
   <polygon stroke="null" id="svg_16" fill="#1d1d1b" points="549.6896183437904,547.1843046276335 511.5407196706702,547.1843046276335 511.5407196706702,574.6430765013502 548.3271565343867,574.6430765013502 548.3271565343867,585.9619703085918 511.5407196706702,585.9619703085918 511.5407196706702,613.9447413473245 550.8424165068255,613.9447413473245 550.8424165068255,625.5780346535757 498.64982836838055,625.5780346535757 498.64982836838055,535.8654108203918 549.6896183437904,535.8654108203918 549.6896183437904,547.1843046276335 " class="cls-2"/>
   <polygon stroke="null" id="svg_17" fill="#1d1d1b" points="650.4067364852064,625.5780346535757 639.4023061573363,625.5780346535757 579.4541145043014,556.4070738140872 579.4541145043014,625.5780346535757 567.1919582196689,625.5780346535757 567.1919582196689,535.6558111543854 577.5675895495198,535.6558111543854 638.1445802005738,605.35077115889 638.1445802005738,535.6558111543854 650.4067364852064,535.6558111543854 650.4067364852064,625.5780346535757 " class="cls-2"/>
   <path stroke="null" id="svg_18" fill="#1d1d1b" d="m748.39893,555.46385a82.48114,82.48114 0 0 0 -15.61587,-6.70749a53.34549,53.34549 0 0 0 -15.19665,-2.20089a38.56806,38.56806 0 0 0 -14.25341,2.51531a34.48068,34.48068 0 0 0 -11.31889,7.12671a31.44135,31.44135 0 0 0 -7.54592,10.48045a35.52873,35.52873 0 0 0 -2.72492,13.62458a36.36716,36.36716 0 0 0 2.62011,13.72939a32.38459,32.38459 0 0 0 7.44112,10.48045a34.27107,34.27107 0 0 0 11.31889,7.0219a39.40649,39.40649 0 0 0 14.35822,2.4105a58.48091,58.48091 0 0 0 31.44135,-10.48045l0,14.88224a70.11421,70.11421 0 0 1 -15.51107,6.07866a79.2322,79.2322 0 0 1 -17.18794,1.88648a54.91756,54.91756 0 0 1 -17.50235,-2.51531a43.70348,43.70348 0 0 1 -14.25341,-8.06995a45.17074,45.17074 0 0 1 -12.68134,-15.82548a46.32359,46.32359 0 0 1 -4.29698,-19.49364a46.11398,46.11398 0 0 1 29.45006,-42.76024a49.88694,49.88694 0 0 1 19.59844,-3.14413a70.21901,70.21901 0 0 1 14.77743,1.67687a120.00115,120.00115 0 0 1 16.66392,5.65944l0.41922,13.62458z" class="cls-2"/>
   <rect stroke="null" id="svg_19" fill="#1d1d1b" height="89.81746" width="12.89095" y="535.6558" x="767.47335" class="cls-2"/>
   <path stroke="null" id="svg_20" fill="#1d1d1b" d="m880.5574,625.57806l-13.20537,0l-11.94771,-26.51554l-38.25364,0l-11.31889,26.51554l-13.20537,0l38.67286,-90.44628l9.01319,0l40.24493,90.44628zm-58.37611,-38.14884l27.77319,0l-14.67263,-31.96537l-13.10056,31.96537z" class="cls-2"/>
   <polygon stroke="null" id="svg_21" fill="#1d1d1b" points="210.96144271692276,687.0982877820206 172.91742385225837,687.0982877820206 172.91742385225837,714.6619234691025 209.70379673561285,714.6619234691025 209.70379673561285,725.9807532959821 172.91742385225837,725.9807532959821 172.91742385225837,753.9635243347147 212.11428886522947,753.9635243347147 212.11428886522947,765.4920178079628 160.02646856960666,765.4920178079628 160.02646856960666,675.7793939747789 210.96144271692276,675.7793939747789 210.96144271692276,687.0982877820206 " class="cls-2"/>
   <rect stroke="null" id="svg_22" fill="#1d1d1b" height="89.81746" width="12.89095" y="675.67461" x="267.13667" class="cls-2"/>
   <polygon stroke="null" id="svg_23" fill="#1d1d1b" points="385.77535377533525,765.4920178079628 374.77089145728416,765.4920178079628 314.8226998042493,696.3211209488363 314.8226998042493,765.4920178079628 302.5606074999788,765.4920178079628 302.5606074999788,675.6745941417757 312.9362388298297,675.6745941417757 373.51319749070274,745.3695541462803 373.51319749070274,675.6745941417757 385.77535377533525,675.6745941417757 385.77535377533525,765.4920178079628 " class="cls-2"/>
   <polygon stroke="null" id="svg_24" fill="#1d1d1b" points="490.8942888341527,765.4920178079628 479.8898265161016,765.4920178079628 419.9416348630667,696.3211209488363 419.9416348630667,765.4920178079628 407.6795105686152,765.4920178079628 407.6795105686152,675.6745941417757 418.0551738886471,675.6745941417757 478.6321645397012,745.3695541462803 478.6321645397012,675.6745941417757 490.8942888341527,675.6745941417757 490.8942888341527,765.4920178079628 " class="cls-2"/>
   <path stroke="null" id="svg_25" fill="#1d1d1b" d="m575.78592,677.98031a46.74281,46.74281 0 0 1 15.30146,9.64201a41.9218,41.9218 0 0 1 10.48045,14.56783a47.89566,47.89566 0 0 1 0,36.89118a41.9218,41.9218 0 0 1 -10.48045,14.56783a50.41096,50.41096 0 0 1 -15.51107,9.53721a55.12717,55.12717 0 0 1 -19.28403,3.56335a50.30616,50.30616 0 0 1 -18.86481,-3.56335a46.84761,46.84761 0 0 1 -14.98704,-9.53721a45.48515,45.48515 0 0 1 -13.62458,-32.80381a45.06593,45.06593 0 0 1 3.66816,-18.6552a43.91309,43.91309 0 0 1 9.95643,-14.67263a46.32359,46.32359 0 0 1 15.19665,-9.64201a55.44158,55.44158 0 0 1 38.56806,0l-0.41922,0.1048zm-33.01342,11.21408a31.44135,31.44135 0 0 0 -11.10928,7.12671a30.60291,30.60291 0 0 0 -7.33631,10.48045a34.37588,34.37588 0 0 0 -2.62011,13.72939a32.5942,32.5942 0 0 0 2.62011,13.10056a30.60291,30.60291 0 0 0 7.33631,10.48045a36.57677,36.57677 0 0 0 11.10928,7.12671a35.31912,35.31912 0 0 0 13.72939,3.35374a36.26236,36.26236 0 0 0 25.15308,-9.85162a34.79509,34.79509 0 0 0 10.48045,-24.52425a33.85185,33.85185 0 0 0 -2.72492,-13.20537a36.36716,36.36716 0 0 0 -7.33631,-10.48045a33.85185,33.85185 0 0 0 -10.48045,-7.12671a36.47197,36.47197 0 0 0 -13.72939,-2.72492a39.72091,39.72091 0 0 0 -15.09185,2.51531z" class="cls-2"/>
   <polygon stroke="null" id="svg_26" fill="#1d1d1b" points="654.7036575990616,766.0161449337029 651.8739981276132,766.0161449337029 613.0963324466549,675.6745941417757 625.9872877293066,675.6745941417757 653.0268602710104,738.7669087456306 679.961568999349,675.6745941417757 692.6429246159943,675.6745941417757 654.7036575990616,766.0161449337029 " class="cls-2"/>
   <path stroke="null" id="svg_27" fill="#1d1d1b" d="m782.77481,765.07285l-13.20537,0l-11.94771,-26.41073l-38.14884,0l-11.42369,26.41073l-13.10056,0l38.56806,-90.34148l9.11799,0l40.14012,90.34148zm-58.58572,-37.62482l27.9828,0l-14.46302,-32.48939l-13.51978,32.48939z" class="cls-2"/>
   <path stroke="null" id="svg_28" fill="#1d1d1b" d="m871.43941,695.69227a80.17544,80.17544 0 0 0 -15.72067,-6.81229a56.38482,56.38482 0 0 0 -15.09185,-2.09609a39.5113,39.5113 0 0 0 -14.35822,2.51531a36.36716,36.36716 0 0 0 -11.31889,7.12671a32.38459,32.38459 0 0 0 -7.44112,10.48045a36.05275,36.05275 0 0 0 0,27.24917a31.44135,31.44135 0 0 0 7.44112,10.48045a33.95666,33.95666 0 0 0 11.31889,6.9171a39.5113,39.5113 0 0 0 14.35822,2.51531a59.94817,59.94817 0 0 0 31.44135,-10.48045l0,14.67263a62.8827,62.8827 0 0 1 -15.51107,5.97386a73.36315,73.36315 0 0 1 -17.08313,2.51531a54.91756,54.91756 0 0 1 -17.50235,-2.51531a43.70348,43.70348 0 0 1 -13.939,-8.06995a45.17074,45.17074 0 0 1 -12.26213,-15.82548a46.32359,46.32359 0 0 1 -4.29698,-19.49364a43.80828,43.80828 0 0 1 3.35374,-18.6552a44.2275,44.2275 0 0 1 10.48045,-14.77743a46.42839,46.42839 0 0 1 15.40626,-9.74682a49.88694,49.88694 0 0 1 18.76001,-3.14413a63.93074,63.93074 0 0 1 14.77743,1.67687a120.00115,120.00115 0 0 1 16.66392,5.65944l0.52402,13.83419z" class="cls-2"/>
   <rect stroke="null" id="svg_29" fill="#1d1d1b" height="89.81746" width="12.89095" y="675.67461" x="890.51383" class="cls-2"/>
   <path stroke="null" id="svg_30" fill="#1d1d1b" d="m989.03006,677.98031a46.74281,46.74281 0 0 1 15.30146,9.64201a45.38035,45.38035 0 0 1 10.48045,14.56783a47.89566,47.89566 0 0 1 0,36.89118a45.38035,45.38035 0 0 1 -10.48045,14.56783a50.41096,50.41096 0 0 1 -15.51107,9.53721a55.12717,55.12717 0 0 1 -19.70325,3.56335a50.09655,50.09655 0 0 1 -18.76001,-3.56335a47.26683,47.26683 0 0 1 -15.09185,-9.53721a44.75152,44.75152 0 0 1 -13.51978,-32.80381a47.16202,47.16202 0 0 1 3.45855,-18.6552a42.86504,42.86504 0 0 1 10.48045,-14.67263a46.32359,46.32359 0 0 1 15.19665,-9.64201a52.40225,52.40225 0 0 1 19.28403,-3.45855a53.34549,53.34549 0 0 1 18.86481,3.56335zm-33.01342,11.21408a32.5942,32.5942 0 0 0 -18.44559,17.92157a34.37588,34.37588 0 0 0 -2.62011,13.72939a32.5942,32.5942 0 0 0 2.62011,13.41498a30.60291,30.60291 0 0 0 7.33631,10.48045a34.8999,34.8999 0 0 0 11.00447,7.12671a39.09208,39.09208 0 0 0 13.939,2.51531a35.42392,35.42392 0 0 0 13.939,-2.62011a34.8999,34.8999 0 0 0 18.5504,-18.13118a35.42392,35.42392 0 0 0 2.62011,-13.62458a33.74705,33.74705 0 0 0 -2.62011,-13.20537a34.79509,34.79509 0 0 0 -7.44112,-10.48045a31.44135,31.44135 0 0 0 -11.00447,-7.12671a35.52873,35.52873 0 0 0 -13.62458,-2.72492a38.77766,38.77766 0 0 0 -14.25341,2.72492zm14.88224,-37.52001l15.30146,0l-14.14861,17.92157l-9.74682,0l8.59397,-17.92157z" class="cls-2"/>
   <polygon stroke="null" id="svg_31" fill="#1d1d1b" points="1119.8261100849168,765.4920178079628 1108.8216157766847,765.4920178079628 1048.8734241236498,696.3211209488363 1048.8734241236498,765.4920178079628 1036.6112038586552,765.4920178079628 1036.6112038586552,675.6745941417757 1046.9868351885061,675.6745941417757 1107.6688176136495,745.3695541462803 1107.6688176136495,675.6745941417757 1119.8261100849168,675.6745941417757 1119.8261100849168,765.4920178079628 " class="cls-2"/>
  </g>
 </g>
</svg>