<svg width="544" height="320" xmlns="http://www.w3.org/2000/svg" version="1.1" xml:space="preserve">
 <metadata id="metadata8">image/svg+xml</metadata>
 <defs id="defs6">
  <clipPath clipPathUnits="userSpaceOnUse" id="clipPath128">
   <path d="m0,898.583l651.973,0l0,-898.583l-651.973,0l0,898.583z" id="path126"/>
  </clipPath>
  <clipPath clipPathUnits="userSpaceOnUse" id="clipPath372">
   <path d="m-119.25001,866.333l651.973,0l0,-898.583l-651.973,0l0,898.583z" id="path370"/>
  </clipPath>
 </defs>
 <g>
  <title>Layer 1</title>
  <g stroke="null" id="svg_16">
   <path stroke="null" fill="#000000" fill-rule="nonzero" d="m181.07709,276.86862l4.86042,0l0,24.07094l-4.86042,0l0,-24.07094z" id="path382"/>
   <path stroke="null" fill="#000000" fill-rule="nonzero" d="m133.29684,276.86836l4.86042,0l0,13.03726c0,2.06803 0.06025,3.40888 0.18074,4.02256c0.20736,0.98497 0.70335,1.7752 1.48517,2.37207c0.78322,0.59687 1.85226,0.8953 3.20993,0.8953c1.38009,0 2.4197,-0.28162 3.12025,-0.84627c0.70055,-0.56324 1.12228,-1.25539 1.26379,-2.07643c0.14291,-0.82105 0.21297,-2.18432 0.21297,-4.08842l0,-13.31608l4.86042,0l0,12.64214c0,2.89047 -0.1317,4.93188 -0.39371,6.12562c-0.26341,1.19234 -0.74679,2.19973 -1.45294,3.02078c-0.70616,0.82105 -1.6505,1.47536 -2.83303,1.96154c-1.18113,0.48758 -2.72514,0.73138 -4.62924,0.73138c-2.29921,0 -4.04218,-0.26621 -5.23031,-0.79723c-1.18673,-0.53102 -2.12547,-1.22036 -2.81622,-2.06803c-0.68934,-0.84907 -1.1433,-1.73737 -1.36187,-2.6691c-0.31805,-1.37868 -0.47637,-3.41449 -0.47637,-6.1074l0,-12.8397z" id="path376"/>
   <path stroke="null" fill="#000000" fill-rule="nonzero" d="m157.32631,300.93869l0,-24.07094l4.72872,0l9.85115,16.07485l0,-16.07485l4.51575,0l0,24.07094l-4.87724,0l-9.70263,-15.69655l0,15.69655l-4.51575,0z" id="path380"/>
   <path stroke="null" fill="#000000" fill-rule="nonzero" d="m197.93163,275.48907l2.26558,-4.90946l5.17287,0l-4.51575,4.90946l-2.9227,0zm-3.67789,13.39874c0,2.72514 0.62909,4.79037 1.88869,6.19707c1.25819,1.40671 2.85685,2.11006 4.79457,2.11006c1.93632,0 3.52657,-0.69775 4.76935,-2.09325c1.24278,-1.3955 1.86347,-3.48874 1.86347,-6.27974c0,-2.75877 -0.60528,-4.81699 -1.81443,-6.17466c-1.20915,-1.35627 -2.81622,-2.0358 -4.81839,-2.0358c-2.00358,0 -3.61765,0.68654 -4.84361,2.06102c-1.22737,1.37308 -1.83965,3.44531 -1.83965,6.21529m-5.00754,0.16393c0,-2.45193 0.36709,-4.51015 1.09987,-6.17466c0.54783,-1.22596 1.29462,-2.32583 2.24176,-3.2996c0.94574,-0.97377 1.98396,-1.69673 3.11045,-2.16751c1.50058,-0.6347 3.22954,-0.95275 5.18828,-0.95275c3.54759,0 6.38482,1.10127 8.5145,3.301c2.12827,2.19973 3.19311,5.25974 3.19311,9.17862c0,3.88526 -1.05643,6.92565 -3.16929,9.11977c-2.11286,2.19553 -4.93608,3.29259 -8.47246,3.29259c-3.57841,0 -6.42545,-1.09146 -8.53832,-3.27578c-2.11146,-2.18292 -3.16789,-5.19108 -3.16789,-9.0217" id="path386"/>
   <path stroke="null" fill="#000000" fill-rule="nonzero" d="m216.10004,300.93869l0,-24.07094l4.72872,0l9.85115,16.07485l0,-16.07485l4.51575,0l0,24.07094l-4.87724,0l-9.70263,-15.69655l0,15.69655l-4.51575,0z" id="path390"/>
   <path stroke="null" fill="#000000" fill-rule="nonzero" d="m249.00477,300.93869l0,-24.07094l17.84724,0l0,4.073l-12.98682,0l0,5.3354l12.08311,0l0,4.05619l-12.08311,0l0,6.55015l13.44638,0l0,4.05619l-18.3068,0z" id="path394"/>
   <path stroke="null" fill="#000000" fill-rule="nonzero" d="m271.06456,276.86836l4.86042,0l0,13.03726c0,2.06803 0.06025,3.40888 0.18074,4.02256c0.20736,0.98497 0.70335,1.7752 1.48517,2.37207c0.78322,0.59687 1.85226,0.8953 3.20993,0.8953c1.38009,0 2.4197,-0.28162 3.12025,-0.84627c0.70055,-0.56324 1.12228,-1.25539 1.26379,-2.07643c0.14291,-0.82105 0.21297,-2.18432 0.21297,-4.08842l0,-13.31608l4.86042,0l0,12.64214c0,2.89047 -0.1317,4.93188 -0.39371,6.12562c-0.26341,1.19234 -0.74679,2.19973 -1.45294,3.02078c-0.70616,0.82105 -1.6505,1.47536 -2.83303,1.96154c-1.18113,0.48758 -2.72514,0.73138 -4.62924,0.73138c-2.29921,0 -4.04218,-0.26621 -5.23031,-0.79723c-1.18673,-0.53102 -2.12547,-1.22036 -2.81622,-2.06803c-0.68934,-0.84907 -1.1433,-1.73737 -1.36187,-2.6691c-0.31805,-1.37868 -0.47637,-3.41449 -0.47637,-6.1074l0,-12.8397z" id="path398"/>
   <path stroke="null" fill="#000000" fill-rule="nonzero" d="m299.92125,287.04816l3.59523,0c2.33143,0 3.78858,-0.09808 4.36864,-0.29563c0.58006,-0.19756 1.03401,-0.53662 1.36187,-1.0172c0.32926,-0.48198 0.49319,-1.08445 0.49319,-1.80742c0,-0.80984 -0.21577,-1.46275 -0.64871,-1.96154c-0.43294,-0.49739 -1.04242,-0.81264 -1.83124,-0.94434c-0.39371,-0.05464 -1.57624,-0.08126 -3.54619,-0.08126l-3.79278,0l0,6.1074zm-4.86042,13.89053l0,-24.07094l10.22945,0c2.57242,0 4.44149,0.21717 5.60721,0.64871c1.16572,0.43294 2.09885,1.20215 2.7994,2.30762c0.70055,1.10547 1.05083,2.36926 1.05083,3.79278c0,1.80602 -0.53102,3.29679 -1.59305,4.47372c-1.06063,1.17693 -2.64808,1.91811 -4.76095,2.22495c1.05083,0.61368 1.91811,1.28621 2.60185,2.01899c0.68514,0.73418 1.60706,2.0372 2.76718,3.90767l2.93951,4.69649l-5.81317,0l-3.51396,-5.23732c-1.24698,-1.87187 -2.10165,-3.0516 -2.56121,-3.53918c-0.45956,-0.48618 -0.94715,-0.82105 -1.46135,-1.00039c-0.5142,-0.18074 -1.32965,-0.27181 -2.44632,-0.27181l-0.98497,0l0,10.0487l-4.86042,0z" id="path402"/>
   <path stroke="null" fill="#000000" fill-rule="nonzero" d="m323.01489,288.88711c0,2.72514 0.62909,4.79177 1.88869,6.19848c1.25819,1.40671 2.85685,2.11006 4.79457,2.11006c1.93632,0 3.52657,-0.69775 4.76935,-2.09325c1.24278,-1.3969 1.86347,-3.49015 1.86347,-6.28114c0,-2.75877 -0.60528,-4.81559 -1.81443,-6.17326c-1.20915,-1.35767 -2.81622,-2.0358 -4.81839,-2.0358c-2.00358,0 -3.61765,0.68654 -4.84501,2.05962c-1.22596,1.37448 -1.83825,3.44531 -1.83825,6.21529m-5.00754,0.16393c0,-2.45193 0.36569,-4.51015 1.09987,-6.17326c0.54783,-1.22596 1.29462,-2.32583 2.24176,-3.301c0.94574,-0.97377 1.98396,-1.69533 3.11045,-2.1661c1.50058,-0.6361 3.22954,-0.95275 5.18828,-0.95275c3.54759,0 6.38482,1.09987 8.5145,3.2996c2.12827,2.20113 3.19311,5.25974 3.19311,9.17862c0,3.88666 -1.05643,6.92705 -3.16929,9.12118c-2.11286,2.19413 -4.93608,3.29259 -8.47246,3.29259c-3.57841,0 -6.42545,-1.09286 -8.53692,-3.27578c-2.11286,-2.18432 -3.16929,-5.19108 -3.16929,-9.0231" id="path406"/>
   <path stroke="null" fill="#000000" fill-rule="nonzero" d="m349.67128,280.94023l0,6.83037l2.65929,0c1.91671,0 3.19732,-0.1261 3.84322,-0.3783c0.64591,-0.2508 1.15171,-0.64451 1.51879,-1.18113c0.36569,-0.53662 0.54923,-1.16011 0.54923,-1.87187c0,-0.87569 -0.2564,-1.59866 -0.77201,-2.16751c-0.5142,-0.56885 -1.16572,-0.92473 -1.95314,-1.06764c-0.58006,-0.10929 -1.74577,-0.16393 -3.49715,-0.16393l-2.34825,0zm-4.86042,19.99793l0,-24.06953l7.79994,0c2.95492,0 4.88144,0.12049 5.77955,0.36148c1.37868,0.36008 2.53319,1.1461 3.46352,2.35525c0.93033,1.20915 1.3955,2.77278 1.3955,4.68809c0,1.47816 -0.26761,2.71954 -0.80423,3.72693c-0.53662,1.00739 -1.21756,1.79761 -2.04421,2.37207c-0.82665,0.57585 -1.66591,0.95555 -2.52058,1.1419c-1.16011,0.22978 -2.84003,0.34467 -5.03976,0.34467l-3.16929,0l0,9.07914l-4.86042,0z" id="path410"/>
   <path stroke="null" fill="#000000" fill-rule="nonzero" d="m366.90469,300.93869l0,-24.07094l17.84724,0l0,4.073l-12.98682,0l0,5.3354l12.08451,0l0,4.05619l-12.08451,0l0,6.55015l13.44638,0l0,4.05619l-18.3068,0z" id="path414"/>
   <path stroke="null" fill="#000000" fill-rule="nonzero" d="m401.75433,291.41566l-3.31641,-8.93203l-3.25056,8.93203l6.56697,0zm8.94884,9.52329l-5.28776,0l-2.10165,-5.4671l-9.62137,0l-1.98676,5.4671l-5.15606,0l9.37618,-24.07094l5.13924,0l9.63818,24.07094z" id="path418"/>
  </g>
  <path stroke="null" fill="#003399" fill-rule="nonzero" d="m71.41136,0l401.17729,0l0,255.35789l-401.17729,0l0,-255.35789z" id="path16"/>
  <path stroke="null" fill="#ffcc00" fill-rule="nonzero" d="m264.23804,55.63819l8.08064,-5.89807l8.08469,5.89807l-3.07802,-9.53794l8.21165,-5.89942l-10.12139,0l-3.09693,-9.65409l-3.09693,9.66489l-10.11194,-0.0108l8.20219,5.89942l-3.07396,9.53794z" id="path20"/>
  <path stroke="null" fill="#ffcc00" fill-rule="nonzero" d="m222.41158,66.87494l8.08199,-5.89807l8.07794,5.89807l-3.07126,-9.53794l8.20489,-5.89942l-10.12004,0l-3.09693,-9.66489l-3.09557,9.6757l-10.11464,-0.0108l8.20354,5.89942l-3.06991,9.53794z" id="path24"/>
  <path stroke="null" fill="#ffcc00" fill-rule="nonzero" d="m199.88927,72.44616l-3.09693,9.6757l-10.11329,-0.0108l8.20354,5.89807l-3.07532,9.53929l8.08199,-5.89807l8.08199,5.89807l-3.07532,-9.53929l8.20354,-5.89807l-10.11329,0l-3.09693,-9.66489z" id="path28"/>
  <path stroke="null" fill="#ffcc00" fill-rule="nonzero" d="m188.66241,133.42429l8.07659,5.89807l-3.06991,-9.53794l8.20354,-5.89807l-10.11329,0l-3.09693,-9.66624l-3.09693,9.6865l-10.11869,-0.02026l8.20895,5.89807l-3.07532,9.53794l8.08199,-5.89807z" id="path32"/>
  <path stroke="null" fill="#ffcc00" fill-rule="nonzero" d="m202.98619,165.78601l-3.09693,-9.66489l-3.09693,9.6757l-10.11329,-0.0108l8.20354,5.89807l-3.07532,9.53929l8.08199,-5.90887l8.08199,5.90887l-3.07532,-9.53929l8.20354,-5.89807l-10.11329,0z" id="path36"/>
  <path stroke="null" fill="#ffcc00" fill-rule="nonzero" d="m233.64899,196.4481l-3.09693,-9.65409l-3.09152,9.66489l-10.11869,-0.0108l8.20354,5.89807l-3.06991,9.53929l8.08199,-5.89942l8.07524,5.89942l-3.06856,-9.53929l8.20354,-5.89807l-10.11869,0z" id="path40"/>
  <path stroke="null" fill="#fff215" fill-rule="nonzero" d="m275.42261,207.55947l-3.09693,-9.66489l-3.09152,9.6757l-10.11869,-0.0108l8.20354,5.89807l-3.06991,9.53929l8.08199,-5.89942l8.07524,5.89942l-3.07396,-9.53929l8.20895,-5.89807l-10.11869,0z" id="path44"/>
  <path stroke="null" fill="#ffcc00" fill-rule="nonzero" d="m317.19628,196.4481l-3.09152,-9.65409l-3.10233,9.66489l-10.10789,-0.0108l8.19814,5.89807l-3.06991,9.53929l8.08199,-5.89942l8.08064,5.89942l-3.07937,-9.53929l8.20895,-5.89807l-10.11869,0z" id="path48"/>
  <path stroke="null" fill="#ffcc00" fill-rule="nonzero" d="m347.86963,165.78601l-3.10233,-9.66489l-3.10233,9.6757l-10.10789,-0.0108l8.20895,5.89807l-3.08072,9.53929l8.08199,-5.90887l8.08334,5.90887l-3.08207,-9.53929l8.20759,-5.89807l-10.10654,0z" id="path52"/>
  <path stroke="null" fill="#ffcc00" fill-rule="nonzero" d="m369.0889,123.76895l-10.11869,0l-3.10233,-9.66489l-3.09152,9.6757l-10.11869,-0.0108l8.20895,5.89807l-3.07261,9.53929l8.07389,-5.90887l8.08064,5.90887l-3.06856,-9.53929l8.20895,-5.89807z" id="path56"/>
  <path stroke="null" fill="#ffcc00" fill-rule="nonzero" d="m336.68502,97.42237l8.08064,-5.89807l8.08469,5.89807l-3.08072,-9.53794l8.20895,-5.88861l-10.10924,0l-3.10368,-9.66489l-3.09963,9.6757l-10.10924,-0.0108l8.20895,5.88861l-3.08072,9.53794z" id="path60"/>
  <path stroke="null" fill="#ffcc00" fill-rule="nonzero" d="m314.22078,41.78407l-3.09152,9.6757l-10.11869,-0.02161l8.19814,5.90887l-3.06991,9.53929l8.09279,-5.90887l8.06983,5.90887l-3.06856,-9.53929l8.20895,-5.90887l-10.1295,0l-3.09152,-9.65409z" id="path64"/>
 </g>
</svg>